<svg xmlns="http://www.w3.org/2000/svg" viewBox="0 0 156.21 102.93"><defs><style>.a,.e{fill:none;}.a{stroke:#c9caca;stroke-width:0.25px;}.b,.c,.d{fill:#595757;}.b{fill-rule:evenodd;}.c{font-size:6px;font-family:Open Sans;}.e{stroke:#595757;}</style></defs><title>hobbies</title><circle class="a" cx="23.55" cy="23.38" r="23.25"/><path class="b" d="M73.66,495.77l-3.26-1.31v-2.62l3.26-1.31a0.65,0.65,0,0,1,.65.65v3.92A0.65,0.65,0,0,1,73.66,495.77Zm-6.2-4.58a2.94,2.94,0,1,1,2.94-2.94A2.94,2.94,0,0,1,67.46,491.2Zm-5.87,0a2.94,2.94,0,1,1,2.94-2.94A2.94,2.94,0,0,1,61.59,491.2Zm8.16,0v5.89H66.1a1.72,1.72,0,0,1-.62,1.28h0.37l2.6,5.87H67.8l-0.87-2H65.2v3.26H64.55v-3.26H62.78l-0.88,2H61.25l2.64-5.87h0.25a1.71,1.71,0,0,1-.62-1.28H59.3V491.2H69.75Zm-5.2,7.36-0.08,0-1.39,3.09h1.47v-3.06Zm0.65,0v3.11h1.45l-1.39-3.13Z" transform="translate(-41.96 -476.43)"/><text class="c" transform="translate(12.91 36.11)">Cinema</text><circle class="a" cx="78.05" cy="23.38" r="23.25"/><text class="c" transform="translate(71.84 36.11)">Beer</text><path class="b" d="M126.92,499.71h-1.65V501a1.76,1.76,0,0,1-1.77,1.69h-6.24a1.69,1.69,0,0,1-1.69-1.69v-9.14h1.81v9h1.2v-9a3.54,3.54,0,0,0,1.22.5v8.53H121v-8.49a3,3,0,0,0,1.22-.49v9h1.2v-9h3.49a1.36,1.36,0,0,1,1.36,1.36v5.12A1.36,1.36,0,0,1,126.92,499.71Zm0.14-6.66h-1.79v5.44h1.79v-5.44Zm-2.89-1.74a2.19,2.19,0,0,1-1.52-.62,2.69,2.69,0,0,1-4.37.07,2.19,2.19,0,0,1-3.65-1.16,1.19,1.19,0,0,1,.65-2.18l0.14,0a2.2,2.2,0,0,1,1.33-.49,1.69,1.69,0,0,1,3-.43,2.51,2.51,0,0,1,1.42,0,1.69,1.69,0,0,1,3,.38h0A2.2,2.2,0,1,1,124.17,491.32Z" transform="translate(-41.96 -476.43)"/><circle class="a" cx="132.55" cy="23.38" r="23.25"/><text class="c" transform="translate(124.79 36.11)">Music</text><path class="b" d="M181.44,502.76v-1.42h0c0-.12,0-0.23,0-0.35V493.2a6,6,0,1,0-12,0V501c0,0.12,0,.24,0,0.35h0v1.42a3.64,3.64,0,0,1-3.54-3.9A3.52,3.52,0,0,1,168,495.3V493.2a7.44,7.44,0,1,1,14.87,0v2.11a3.52,3.52,0,0,1,2.13,3.56A3.64,3.64,0,0,1,181.44,502.76Zm-10.62,0h-0.71V495h0.71v7.79Zm9.92,0H180V495h0.71v7.79Z" transform="translate(-41.96 -476.43)"/><circle class="a" cx="77.71" cy="79.13" r="23.25"/><text class="c" transform="translate(61.37 91.86)">Videogames</text><path class="b" d="M125.75,541.78c-1,0-3,1.43-4.64,1.43s-3.75-1.43-4.64-1.43c-6.12,0-9.63,16.47-5.05,16.47,3.87,0,4.38-4.82,9.68-4.82,4.28,0,6.79,4.76,9.65,4.76C135.32,558.19,131.87,541.78,125.75,541.78Zm-9.63,9.28a3.21,3.21,0,1,1,3.21-3.21A3.21,3.21,0,0,1,116.11,551.05Zm8.52-1.78a0.71,0.71,0,1,1,.71-0.71A0.71,0.71,0,0,1,124.63,549.27Zm2.19,2.14a0.71,0.71,0,1,1,.71-0.71A0.71,0.71,0,0,1,126.82,551.41Zm0-4.28a0.71,0.71,0,1,1,.71-0.71A0.71,0.71,0,0,1,126.82,547.13Zm2.14,2.14a0.71,0.71,0,1,1,.71-0.71A0.71,0.71,0,0,1,129,549.27Zm-12.84-3.21a1.78,1.78,0,1,0,1.78,1.78A1.78,1.78,0,0,0,116.11,546.06Z" transform="translate(-41.96 -476.43)"/><circle class="a" cx="23.38" cy="79.13" r="23.25"/><text class="c" transform="translate(12.73 91.86)">Theatre</text><path class="b" d="M60.53,556.49v-6.87h0.75v-0.85H57.43v0.77h0.75v6.95h2.34ZM56.22,548H74.88c0.45-.2.43-0.62,0-0.9s-9.35-6.73-9.35-6.73-8.86,6.45-9.31,6.73S55.75,547.82,56.22,548Zm9.31-4.44a1.35,1.35,0,1,1-1.35,1.35A1.35,1.35,0,0,1,65.54,543.57ZM56.69,558H74.42v-0.75H56.69V558Zm-0.77,1.54H75.19v-0.71H55.92v0.71Zm10.81-3.08v-6.92h0.75v-0.75H63.63v0.73h0.75v6.95h2.34Zm6.15,0v-6.92h0.75v-0.75H69.78v0.73h0.76v6.95h2.34Z" transform="translate(-41.96 -476.43)"/><circle class="a" cx="132.38" cy="78.58" r="23.25"/><text class="c" transform="translate(122.96 92.49)">Fitness</text><rect class="d" x="120.88" y="65.79" width="3" height="12.8"/><rect class="d" x="141.44" y="66.23" width="3" height="12.8"/><line class="e" x1="121.38" y1="72.18" x2="141.94" y2="72.18"/></svg>